<svg width="128" height="42" viewBox="0 0 128 42" fill="none" xmlns="http://www.w3.org/2000/svg">
<rect x="0.289551" width="41" height="42" rx="10" fill="black"/>
<path d="M27.106 30.063C26.599 30.071 26.1484 30.0189 25.7541 29.9067C25.3678 29.7945 25.0177 29.6342 24.7039 29.4258C24.3901 29.2173 24.0803 28.9047 23.7745 28.4879C23.4767 28.071 23.1991 27.6221 22.9416 27.1412C22.6841 26.6602 22.3823 26.039 22.0363 25.2774C21.5615 24.2113 21.2557 23.578 21.1189 23.3776C20.8936 23.049 20.6039 22.8646 20.2498 22.8245C20.1533 22.8165 20.0406 22.8125 19.9119 22.8125C19.6141 22.8125 19.417 22.8726 19.3204 22.9929C19.2238 23.1131 19.1756 23.3977 19.1756 23.8466V24.7844C19.1756 25.1532 19.2279 25.4257 19.3325 25.6021C19.4371 25.7784 19.6383 25.9909 19.936 26.2394C20.2418 26.5199 20.447 26.7604 20.5516 26.9608C20.6643 27.1612 20.7246 27.4618 20.7327 27.8626C20.7568 28.3356 20.7286 28.7043 20.6482 28.9688C20.5757 29.2253 20.3947 29.4338 20.105 29.5941C19.8233 29.7544 19.4572 29.8586 19.0066 29.9067C18.564 29.9548 17.9363 29.9789 17.1235 29.9789C17.027 29.9789 16.8862 29.9789 16.7011 29.9789C16.0171 29.9789 15.5262 29.9749 15.2285 29.9668C14.9388 29.9668 14.5887 29.9468 14.1783 29.9067C13.776 29.8747 13.5024 29.8225 13.3575 29.7504C13.2207 29.6783 13.0638 29.574 12.8867 29.4378C12.7178 29.2935 12.6091 29.1171 12.5608 28.9087C12.5206 28.6923 12.5005 28.4277 12.5005 28.1151C12.5005 27.6903 12.5689 27.3336 12.7057 27.045C12.8425 26.7564 13.1121 26.4718 13.5144 26.1913C13.78 25.9989 13.9812 25.8345 14.118 25.6983C14.2548 25.554 14.3835 25.3215 14.5042 25.0009C14.6249 24.6722 14.7054 24.2554 14.7456 23.7504C14.802 23.085 14.8301 22.2233 14.8301 21.1652C14.8301 20.1071 14.81 19.2453 14.7698 18.58C14.7215 17.8105 14.6129 17.2734 14.4439 16.9688C14.2829 16.6561 14.0294 16.4237 13.6834 16.2714C13.4018 16.1431 13.1885 16.0269 13.0437 15.9227C12.8988 15.8185 12.7701 15.6501 12.6574 15.4177C12.5528 15.1772 12.5005 14.8686 12.5005 14.4918C12.5005 13.9146 12.6131 13.4778 12.8385 13.1812C13.0638 12.8846 13.5265 12.6561 14.2266 12.4958C14.9347 12.3355 15.9728 12.2553 17.3408 12.2553C18.9341 12.2553 19.9964 12.3635 20.5275 12.58C21.0586 12.7964 21.3241 13.2694 21.3241 13.9988C21.3241 14.4076 21.2799 14.7363 21.1914 14.9848C21.1109 15.2333 21.0022 15.4297 20.8654 15.574C20.7286 15.7102 20.4872 15.9187 20.1412 16.1992C19.8274 16.4397 19.6342 16.6762 19.5618 16.9086C19.4974 17.1411 19.4653 17.558 19.4653 18.1592V19.3976C19.4733 19.6862 19.5176 19.8666 19.598 19.9387C19.6865 20.0109 19.8515 20.0349 20.0929 20.0109C20.3665 19.9788 20.6281 19.8626 20.8775 19.6622C21.135 19.4538 21.6782 18.9367 22.5071 18.1111C23.0784 17.5419 23.4526 17.1491 23.6296 16.9327C23.8067 16.7163 23.8952 16.5279 23.8952 16.3676C23.8952 16.2153 23.859 16.107 23.7865 16.0429C23.7222 15.9708 23.5854 15.8906 23.3761 15.8024C23.0945 15.7143 22.8853 15.574 22.7485 15.3816C22.6197 15.1892 22.5553 14.8926 22.5553 14.4918C22.5553 13.9146 22.6599 13.4818 22.8692 13.1932C23.0784 12.9046 23.4928 12.6882 24.1124 12.5439C24.7321 12.3996 25.6655 12.3275 26.9128 12.3275C27.5244 12.3275 28.0072 12.3395 28.3613 12.3635C28.7154 12.3876 29.0373 12.4317 29.327 12.4958C29.6167 12.5599 29.8259 12.6641 29.9546 12.8084C30.0834 12.9527 30.18 13.1331 30.2443 13.3495C30.3087 13.5579 30.3369 13.8345 30.3288 14.1792C30.3288 14.8766 30.2323 15.3575 30.0391 15.6221C29.8541 15.8866 29.4718 16.1351 28.8924 16.3676C28.4659 16.5279 28.0877 16.7283 27.7578 16.9688C27.4279 17.2093 26.8565 17.7062 26.0438 18.4598C25.8989 18.596 25.742 18.7403 25.573 18.8926C25.404 19.0449 25.2793 19.1572 25.1988 19.2293C25.1183 19.2934 25.0338 19.3696 24.9453 19.4578C24.8568 19.5459 24.7924 19.6101 24.7522 19.6501C24.72 19.6902 24.6878 19.7383 24.6556 19.7944C24.6234 19.8505 24.6033 19.9027 24.5953 19.9508C24.5872 19.9908 24.5832 20.0429 24.5832 20.1071C24.5832 20.2353 24.6315 20.3475 24.7281 20.4437C24.8327 20.5399 24.9815 20.6602 25.1747 20.8045C25.3678 20.9407 25.5328 21.093 25.6696 21.2614C26.3938 22.1993 26.9651 23.089 27.3836 23.9307C27.6009 24.3396 27.79 24.6281 27.9509 24.7965C28.1119 24.9568 28.309 25.0369 28.5424 25.0369C28.7275 25.0369 28.8804 24.9969 29.0011 24.9167C29.1218 24.8285 29.2264 24.6642 29.3149 24.4237C29.3954 24.2313 29.4718 24.1031 29.5442 24.0389C29.6247 23.9668 29.7615 23.9307 29.9546 23.9307C30.6306 23.9307 30.9686 24.4558 30.9686 25.5059C30.9444 26.9728 30.6427 28.0951 30.0633 28.8726C29.4839 29.6422 28.4981 30.039 27.106 30.063Z" fill="white"/>
<path d="M13.8196 7.96809C13.8196 6.32886 15.1485 5 16.7877 5C18.4269 5 19.7558 6.32886 19.7558 7.96809C19.7558 9.60731 18.4269 10.9362 16.7877 10.9362C15.1485 10.9362 13.8196 9.60731 13.8196 7.96809Z" fill="white"/>
<path d="M12.5005 33.6915C12.5005 32.4165 13.534 31.383 14.809 31.383H28.6601C29.935 31.383 30.9686 32.4165 30.9686 33.6915C30.9686 34.9664 29.935 36 28.6601 36H14.809C13.534 36 12.5005 34.9664 12.5005 33.6915Z" fill="white"/>
<path d="M60.7241 31.2991C60.2217 31.3071 59.775 31.2552 59.3842 31.1436C59.0014 31.0319 58.6544 30.8724 58.3434 30.665C58.0323 30.4576 57.7252 30.1466 57.4222 29.7319C57.127 29.3171 56.8519 28.8705 56.5967 28.3919C56.3414 27.9134 56.0423 27.2952 55.6994 26.5375C55.2288 25.4768 54.9257 24.8467 54.7901 24.6473C54.5668 24.3203 54.2797 24.1368 53.9288 24.097C53.833 24.089 53.7214 24.085 53.5938 24.085C53.2987 24.085 53.1033 24.1448 53.0076 24.2645C52.9118 24.3841 52.864 24.6672 52.864 25.1139V26.047C52.864 26.4139 52.9158 26.6851 53.0195 26.8606C53.1232 27.036 53.3226 27.2474 53.6177 27.4946C53.9208 27.7738 54.1242 28.0131 54.2278 28.2125C54.3395 28.4119 54.3993 28.711 54.4073 29.1097C54.4312 29.5803 54.4033 29.9472 54.3236 30.2104C54.2518 30.4656 54.0723 30.673 53.7852 30.8325C53.506 30.992 53.1431 31.0957 52.6965 31.1436C52.2578 31.1914 51.6357 31.2153 50.8302 31.2153C50.7345 31.2153 50.5949 31.2153 50.4114 31.2153C49.7335 31.2153 49.247 31.2114 48.9519 31.2034C48.6647 31.2034 48.3178 31.1834 47.911 31.1436C47.5122 31.1117 47.2411 31.0598 47.0975 30.988C46.9619 30.9163 46.8064 30.8126 46.6309 30.677C46.4634 30.5334 46.3558 30.3579 46.3079 30.1506C46.268 29.9352 46.2481 29.672 46.2481 29.361C46.2481 28.9383 46.3159 28.5833 46.4515 28.2962C46.587 28.0091 46.8542 27.7259 47.253 27.4468C47.5162 27.2554 47.7156 27.0919 47.8512 26.9563C47.9868 26.8127 48.1144 26.5814 48.234 26.2624C48.3537 25.9354 48.4334 25.5206 48.4733 25.0182C48.5292 24.3562 48.5571 23.4988 48.5571 22.446C48.5571 21.3932 48.5371 20.5358 48.4972 19.8738C48.4494 19.1081 48.3417 18.5737 48.1742 18.2706C48.0147 17.9596 47.7635 17.7283 47.4205 17.5768C47.1414 17.4491 46.93 17.3335 46.7864 17.2298C46.6429 17.1261 46.5153 16.9586 46.4036 16.7273C46.2999 16.4881 46.2481 16.181 46.2481 15.8061C46.2481 15.2319 46.3597 14.7972 46.5831 14.5021C46.8064 14.207 47.265 13.9797 47.9589 13.8202C48.6608 13.6606 49.6896 13.5809 51.0455 13.5809C52.6247 13.5809 53.6775 13.6886 54.2039 13.9039C54.7303 14.1193 54.9935 14.5898 54.9935 15.3156C54.9935 15.7224 54.9497 16.0494 54.8619 16.2966C54.7822 16.5439 54.6745 16.7393 54.5389 16.8829C54.4033 17.0185 54.164 17.2258 53.8211 17.505C53.51 17.7442 53.3186 17.9795 53.2468 18.2108C53.183 18.4421 53.1511 18.8569 53.1511 19.4551V20.6873C53.1591 20.9744 53.203 21.1539 53.2827 21.2257C53.3705 21.2975 53.534 21.3214 53.7732 21.2975C54.0444 21.2656 54.3036 21.1499 54.5509 20.9505C54.8061 20.7431 55.3445 20.2287 56.166 19.4072C56.7322 18.8409 57.1031 18.4501 57.2786 18.2348C57.4541 18.0194 57.5418 17.832 57.5418 17.6725C57.5418 17.5209 57.5059 17.4133 57.4341 17.3494C57.3703 17.2777 57.2347 17.1979 57.0273 17.1102C56.7482 17.0224 56.5408 16.8829 56.4052 16.6914C56.2776 16.5 56.2138 16.2049 56.2138 15.8061C56.2138 15.2319 56.3175 14.8012 56.5249 14.5141C56.7322 14.2269 57.143 14.0116 57.7571 13.868C58.3713 13.7245 59.2965 13.6527 60.5327 13.6527C61.1389 13.6527 61.6174 13.6646 61.9683 13.6886C62.3193 13.7125 62.6383 13.7564 62.9254 13.8202C63.2126 13.884 63.4199 13.9877 63.5476 14.1312C63.6752 14.2748 63.7709 14.4542 63.8347 14.6696C63.8985 14.877 63.9264 15.1521 63.9184 15.4951C63.9184 16.189 63.8227 16.6675 63.6313 16.9307C63.4479 17.1939 63.069 17.4412 62.4947 17.6725C62.072 17.832 61.6972 18.0314 61.3702 18.2706C61.0432 18.5099 60.4769 19.0044 59.6713 19.7541C59.5278 19.8897 59.3722 20.0333 59.2047 20.1848C59.0372 20.3364 58.9136 20.448 58.8339 20.5198C58.7541 20.5836 58.6704 20.6594 58.5826 20.7471C58.4949 20.8349 58.4311 20.8987 58.3912 20.9385C58.3593 20.9784 58.3274 21.0263 58.2955 21.0821C58.2636 21.1379 58.2437 21.1898 58.2357 21.2376C58.2277 21.2775 58.2237 21.3294 58.2237 21.3932C58.2237 21.5208 58.2716 21.6324 58.3673 21.7282C58.471 21.8239 58.6185 21.9435 58.8099 22.0871C59.0014 22.2226 59.1649 22.3742 59.3004 22.5417C60.0183 23.4748 60.5845 24.3602 60.9993 25.1976C61.2146 25.6044 61.4021 25.8915 61.5616 26.059C61.7211 26.2185 61.9165 26.2983 62.1478 26.2983C62.3312 26.2983 62.4828 26.2584 62.6024 26.1786C62.7221 26.0909 62.8257 25.9274 62.9135 25.6881C62.9932 25.4967 63.069 25.3691 63.1408 25.3053C63.2205 25.2335 63.3561 25.1976 63.5476 25.1976C64.2175 25.1976 64.5525 25.72 64.5525 26.7649C64.5286 28.2244 64.2295 29.341 63.6552 30.1147C63.081 30.8804 62.1039 31.2752 60.7241 31.2991ZM68.7278 31.1436C68.2094 31.1436 67.7907 31.1356 67.4716 31.1196C67.1606 31.1117 66.8455 31.0837 66.5265 31.0359C66.2155 30.996 65.9762 30.9362 65.8087 30.8564C65.6412 30.7767 65.4857 30.665 65.3421 30.5215C65.2065 30.3779 65.1108 30.2064 65.055 30.007C65.0071 29.8076 64.9832 29.5604 64.9832 29.2653C64.9832 28.8824 65.035 28.5594 65.1387 28.2962C65.2424 28.033 65.4657 27.7658 65.8087 27.4946C66.0799 27.2952 66.2593 27.052 66.3471 26.7649C66.4428 26.4698 66.5106 25.9952 66.5504 25.3412C66.5823 24.7988 66.5983 23.6463 66.5983 21.8837L66.5744 17.9955C66.5664 17.6366 66.5066 17.4053 66.3949 17.3016C66.2912 17.1899 66.0719 17.1341 65.7369 17.1341C65.4976 17.1341 65.3062 17.1261 65.1626 17.1102C65.0191 17.0862 64.8755 17.0424 64.732 16.9786C64.5884 16.9148 64.4847 16.8111 64.4209 16.6675C64.3571 16.524 64.3252 16.3365 64.3252 16.1052C64.3252 15.3635 64.6841 14.5619 65.4019 13.7005C65.7688 13.23 66.2155 12.8551 66.7419 12.5759C67.2683 12.2968 67.8345 12.1572 68.4407 12.1572C69.2622 12.1572 69.9441 12.3885 70.4865 12.8511C71.0288 13.3137 71.3 13.9797 71.3 14.849C71.3 15.6067 71.2362 16.8589 71.1086 18.6056C71.0926 18.8609 71.0607 19.4271 71.0129 20.3045C70.965 21.1818 70.9291 21.8438 70.9052 22.2904C70.8813 22.7371 70.8574 23.3951 70.8334 24.2645C70.8175 25.1258 70.8334 25.6722 70.8813 25.9035C70.9052 26.3182 70.9571 26.6213 71.0368 26.8127C71.1245 27.0041 71.304 27.1995 71.5752 27.3989C71.8703 27.6063 72.0816 27.8336 72.2093 28.0809C72.3369 28.3281 72.4007 28.6551 72.4007 29.0619C72.4007 29.5644 72.309 29.9592 72.1255 30.2463C71.9421 30.5254 71.5792 30.7448 71.0368 30.9043C70.4945 31.0638 69.7248 31.1436 68.7278 31.1436ZM76.4324 31.3469C75.1085 31.3469 74.1354 30.9801 73.5133 30.2463C72.8992 29.5125 72.5921 28.5155 72.5921 27.2554C72.5921 26.0909 73.0068 25.1338 73.8363 24.3841C74.6658 23.6344 75.7864 23.2595 77.1981 23.2595C77.7803 23.2595 78.3267 23.3034 78.8371 23.3911C79.3476 23.4788 79.6427 23.5227 79.7224 23.5227C79.882 23.5227 79.9936 23.5028 80.0574 23.4629C80.1292 23.423 80.185 23.3074 80.2249 23.1159C80.2648 22.9245 80.2768 22.6214 80.2608 22.2067C80.2369 20.9146 79.6706 20.2686 78.562 20.2686C78.0435 20.2686 77.6567 20.3483 77.4015 20.5079C77.1463 20.6594 76.9708 20.9306 76.8751 21.3214C76.7554 21.8159 76.572 22.1668 76.3248 22.3742C76.0775 22.5736 75.7146 22.6733 75.2361 22.6733C74.5342 22.6733 73.9679 22.5297 73.5372 22.2426C73.1145 21.9475 72.9031 21.4849 72.9031 20.8548C72.9031 19.8578 73.4176 19.0084 74.4465 18.3065C75.7704 17.4053 77.4932 16.9546 79.6148 16.9546C81.2817 16.9546 82.5499 17.3375 83.4192 18.1032C84.2966 18.8609 84.7352 19.9416 84.7352 21.3453C84.7352 22.0392 84.6914 23.0402 84.6036 24.3482C84.5159 25.6482 84.472 26.3621 84.472 26.4897C84.472 26.9523 84.6595 27.1836 85.0343 27.1836C85.138 27.1836 85.2696 27.1636 85.4291 27.1238C85.5886 27.0759 85.7202 27.052 85.8239 27.052C86.0951 27.052 86.2825 27.1437 86.3862 27.3272C86.4979 27.5106 86.5537 27.8057 86.5537 28.2125C86.5537 28.5395 86.4939 28.8784 86.3742 29.2294C86.2546 29.5803 86.0791 29.9153 85.8478 30.2343C85.6165 30.5534 85.3015 30.8126 84.9027 31.012C84.5119 31.2193 84.0732 31.323 83.5867 31.323C82.5578 31.323 81.7682 31.004 81.2179 30.3659C81.0823 30.2064 80.9547 30.0309 80.8351 29.8395C80.7234 29.6401 80.6317 29.5006 80.5599 29.4208C80.4961 29.3331 80.4123 29.2892 80.3087 29.2892C80.189 29.2892 80.0853 29.3291 79.9976 29.4088C79.9178 29.4806 79.8142 29.6162 79.6866 29.8156C79.5669 30.007 79.4632 30.1586 79.3755 30.2702C79.0644 30.6371 78.7055 30.9083 78.2988 31.0837C77.892 31.2592 77.2699 31.3469 76.4324 31.3469ZM78.5859 27.9373C79.0963 27.9373 79.5111 27.7539 79.8301 27.387C80.1491 27.0121 80.3087 26.5415 80.3087 25.9753C80.3087 25.5924 80.2568 25.3651 80.1531 25.2933C80.0494 25.2136 79.7902 25.1737 79.3755 25.1737C79.3037 25.1737 79.2479 25.1737 79.208 25.1737C78.7055 25.1737 78.2908 25.3173 77.9638 25.6044C77.6447 25.8915 77.4852 26.2704 77.4852 26.7409C77.4852 27.1716 77.577 27.4787 77.7604 27.6621C77.9438 27.8456 78.219 27.9373 78.5859 27.9373ZM88.7431 31.5144C88.4081 31.5144 88.1489 31.4227 87.9654 31.2393C87.782 31.0638 87.5985 30.7567 87.4151 30.3181C86.9605 29.1775 86.7491 28.3959 86.781 27.9732C86.8129 27.5505 87.0801 27.2275 87.5826 27.0041C87.9495 26.8287 88.2805 26.7369 88.5756 26.729C88.8786 26.721 89.1777 26.7848 89.4728 26.9204C89.7679 27.048 90.1508 27.2713 90.6213 27.5904C91.714 28.364 92.711 28.7508 93.6123 28.7508C94.4816 28.7508 94.9163 28.4557 94.9163 27.8655C94.9163 27.5226 94.7408 27.2673 94.3899 27.0998C94.0469 26.9244 93.4607 26.7449 92.6312 26.5615C92.5595 26.5455 92.3521 26.5017 92.0091 26.4299C91.6662 26.3581 91.4189 26.3063 91.2674 26.2743C91.1238 26.2345 90.8925 26.1747 90.5735 26.0949C90.2545 26.0151 89.9992 25.9394 89.8078 25.8676C89.6164 25.7878 89.3971 25.6961 89.1498 25.5924C88.9026 25.4887 88.6872 25.3731 88.5038 25.2455C88.3203 25.1179 88.1608 24.9783 88.0252 24.8267C87.3234 24.077 86.9724 23.104 86.9724 21.9076C86.9724 20.9266 87.2197 20.0732 87.7142 19.3474C88.2087 18.6216 88.8507 18.0832 89.6403 17.7323C90.4379 17.3813 91.3152 17.2139 92.2723 17.2298C93.2374 17.2458 94.1028 17.4571 94.8685 17.8639C94.8844 17.8719 94.9323 17.9038 95.012 17.9596C95.0918 18.0074 95.1516 18.0433 95.1915 18.0673C95.2314 18.0832 95.2832 18.1071 95.347 18.139C95.4188 18.171 95.4826 18.1949 95.5384 18.2108C95.6022 18.2268 95.662 18.2348 95.7179 18.2348C95.8535 18.2348 95.9532 18.1829 96.017 18.0792C96.0887 17.9676 96.1406 17.8479 96.1725 17.7203C96.2044 17.5927 96.2921 17.4771 96.4357 17.3734C96.5872 17.2617 96.7906 17.2059 97.0458 17.2059C97.1894 17.2059 97.317 17.2218 97.4287 17.2537C97.5403 17.2856 97.6281 17.3215 97.6919 17.3614C97.7637 17.4013 97.8354 17.4731 97.9072 17.5768C97.987 17.6804 98.0428 17.7682 98.0747 17.84C98.1146 17.9038 98.1744 18.0194 98.2542 18.1869C98.3339 18.3544 98.3977 18.486 98.4456 18.5817C99.3229 20.2726 99.307 21.3334 98.3977 21.764C97.8554 21.9953 97.4008 22.0751 97.0339 22.0033C96.667 21.9315 96.1645 21.6883 95.5265 21.2735C95.0001 20.9066 94.4457 20.6076 93.8635 20.3763C93.2892 20.137 92.7748 20.0173 92.3202 20.0173C91.8975 20.0173 91.5665 20.1051 91.3272 20.2805C91.0879 20.456 90.9683 20.6873 90.9683 20.9744C90.9683 21.2217 91.064 21.4051 91.2554 21.5248C91.4468 21.6444 91.8337 21.7561 92.4159 21.8598C94.1147 22.1708 95.335 22.4539 96.0768 22.7092C96.8265 22.9564 97.4606 23.3512 97.979 23.8936C98.3459 24.2764 98.6211 24.6991 98.8045 25.1617C98.9879 25.6163 99.0797 26.1906 99.0797 26.8845C99.0797 28.352 98.5931 29.4846 97.6201 30.2822C96.655 31.0718 95.4108 31.4666 93.8874 31.4666C92.8346 31.4666 91.9094 31.2712 91.1119 30.8804C91.0002 30.8325 90.8766 30.7687 90.741 30.6889C90.6054 30.6092 90.4937 30.5534 90.406 30.5215C90.3262 30.4816 90.2425 30.4616 90.1548 30.4616C90.0431 30.4616 89.9554 30.4975 89.8916 30.5693C89.8357 30.6411 89.7879 30.7288 89.748 30.8325C89.7161 30.9362 89.6722 31.0399 89.6164 31.1436C89.5606 31.2472 89.4569 31.335 89.3053 31.4068C89.1618 31.4785 88.9743 31.5144 88.7431 31.5144ZM101.927 31.5144C101.592 31.5144 101.333 31.4227 101.149 31.2393C100.966 31.0638 100.782 30.7567 100.599 30.3181C100.144 29.1775 99.9331 28.3959 99.965 27.9732C99.9969 27.5505 100.264 27.2275 100.767 27.0041C101.133 26.8287 101.464 26.7369 101.76 26.729C102.063 26.721 102.362 26.7848 102.657 26.9204C102.952 27.048 103.335 27.2713 103.805 27.5904C104.898 28.364 105.895 28.7508 106.796 28.7508C107.666 28.7508 108.1 28.4557 108.1 27.8655C108.1 27.5226 107.925 27.2673 107.574 27.0998C107.231 26.9244 106.645 26.7449 105.815 26.5615C105.743 26.5455 105.536 26.5017 105.193 26.4299C104.85 26.3581 104.603 26.3063 104.451 26.2743C104.308 26.2345 104.076 26.1747 103.757 26.0949C103.438 26.0151 103.183 25.9394 102.992 25.8676C102.8 25.7878 102.581 25.6961 102.334 25.5924C102.087 25.4887 101.871 25.3731 101.688 25.2455C101.504 25.1179 101.345 24.9783 101.209 24.8267C100.507 24.077 100.156 23.104 100.156 21.9076C100.156 20.9266 100.404 20.0732 100.898 19.3474C101.393 18.6216 102.035 18.0832 102.824 17.7323C103.622 17.3813 104.499 17.2139 105.456 17.2298C106.421 17.2458 107.287 17.4571 108.052 17.8639C108.068 17.8719 108.116 17.9038 108.196 17.9596C108.276 18.0074 108.336 18.0433 108.375 18.0673C108.415 18.0832 108.467 18.1071 108.531 18.139C108.603 18.171 108.667 18.1949 108.722 18.2108C108.786 18.2268 108.846 18.2348 108.902 18.2348C109.037 18.2348 109.137 18.1829 109.201 18.0792C109.273 17.9676 109.325 17.8479 109.356 17.7203C109.388 17.5927 109.476 17.4771 109.62 17.3734C109.771 17.2617 109.975 17.2059 110.23 17.2059C110.373 17.2059 110.501 17.2218 110.613 17.2537C110.724 17.2856 110.812 17.3215 110.876 17.3614C110.948 17.4013 111.019 17.4731 111.091 17.5768C111.171 17.6804 111.227 17.7682 111.259 17.84C111.299 17.9038 111.358 18.0194 111.438 18.1869C111.518 18.3544 111.582 18.486 111.63 18.5817C112.507 20.2726 112.491 21.3334 111.582 21.764C111.039 21.9953 110.585 22.0751 110.218 22.0033C109.851 21.9315 109.348 21.6883 108.71 21.2735C108.184 20.9066 107.63 20.6076 107.047 20.3763C106.473 20.137 105.959 20.0173 105.504 20.0173C105.081 20.0173 104.75 20.1051 104.511 20.2805C104.272 20.456 104.152 20.6873 104.152 20.9744C104.152 21.2217 104.248 21.4051 104.439 21.5248C104.631 21.6444 105.018 21.7561 105.6 21.8598C107.299 22.1708 108.519 22.4539 109.261 22.7092C110.01 22.9564 110.645 23.3512 111.163 23.8936C111.53 24.2764 111.805 24.6991 111.988 25.1617C112.172 25.6163 112.264 26.1906 112.264 26.8845C112.264 28.352 111.777 29.4846 110.804 30.2822C109.839 31.0718 108.595 31.4666 107.071 31.4666C106.019 31.4666 105.093 31.2712 104.296 30.8804C104.184 30.8325 104.061 30.7687 103.925 30.6889C103.789 30.6092 103.678 30.5534 103.59 30.5215C103.51 30.4816 103.426 30.4616 103.339 30.4616C103.227 30.4616 103.139 30.4975 103.076 30.5693C103.02 30.6411 102.972 30.7288 102.932 30.8325C102.9 30.9362 102.856 31.0399 102.8 31.1436C102.745 31.2472 102.641 31.335 102.489 31.4068C102.346 31.4785 102.158 31.5144 101.927 31.5144ZM116.87 36.3717C116.367 36.3717 115.897 36.3278 115.458 36.2401C115.027 36.1603 114.616 36.0247 114.226 35.8333C113.835 35.6499 113.5 35.4186 113.221 35.1394C112.95 34.8603 112.734 34.5093 112.575 34.0866C112.415 33.6719 112.335 33.2053 112.335 32.6869C112.335 31.8973 112.535 31.2672 112.934 30.7966C113.332 30.326 113.951 30.0908 114.788 30.0908C115.633 30.0908 116.267 30.2981 116.69 30.7129C117.121 31.1276 117.336 31.7059 117.336 32.4476C117.336 32.5114 117.332 32.6111 117.324 32.7467C117.316 32.8903 117.312 32.9939 117.312 33.0578C117.312 33.2731 117.38 33.4366 117.516 33.5483C117.651 33.6599 117.835 33.7158 118.066 33.7158C118.425 33.7158 118.756 33.5403 119.059 33.1894C119.37 32.8464 119.581 32.3519 119.693 31.7059C119.773 31.1236 119.693 30.7049 119.454 30.4497C119.223 30.1944 118.696 29.9631 117.875 29.7558C117.619 29.684 117.4 29.5923 117.217 29.4806C117.033 29.369 116.878 29.2533 116.75 29.1337C116.622 29.014 116.495 28.8346 116.367 28.5953C116.248 28.3481 116.148 28.1287 116.068 27.9373C115.996 27.7379 115.889 27.4348 115.745 27.0281C115.697 26.9004 115.478 26.3262 115.087 25.3053C114.696 24.2844 114.385 23.431 114.154 22.7451C114.026 22.2984 113.895 21.9555 113.759 21.7162C113.624 21.4689 113.444 21.2217 113.221 20.9744C112.966 20.7352 112.798 20.5278 112.718 20.3523C112.631 20.1769 112.587 19.8937 112.587 19.5029C112.587 18.9685 112.686 18.5737 112.886 18.3185C113.085 18.0553 113.444 17.8719 113.962 17.7682C114.481 17.6565 115.278 17.6007 116.355 17.6007C117.416 17.6007 118.21 17.6525 118.736 17.7562C119.262 17.8599 119.629 18.0354 119.837 18.2826C120.044 18.5299 120.148 18.9047 120.148 19.4072C120.148 19.7023 120.1 19.9416 120.004 20.125C119.916 20.3005 119.761 20.4799 119.538 20.6634C119.234 20.9346 119.131 21.3094 119.226 21.788C119.681 23.7261 119.98 24.9185 120.124 25.3651C120.243 25.9075 120.347 26.2704 120.435 26.4538C120.523 26.6293 120.666 26.717 120.866 26.717C120.969 26.717 121.057 26.7011 121.129 26.6691C121.201 26.6293 121.264 26.5575 121.32 26.4538C121.376 26.3501 121.416 26.2584 121.44 26.1786C121.472 26.0909 121.516 25.9473 121.571 25.7479C121.635 25.5486 121.687 25.389 121.727 25.2694C122.166 23.9374 122.481 22.9883 122.672 22.422C122.776 21.9674 122.796 21.6125 122.732 21.3573C122.668 21.0941 122.497 20.8548 122.217 20.6395C121.97 20.448 121.791 20.2646 121.679 20.0891C121.575 19.9057 121.524 19.6465 121.524 19.3115C121.524 18.8489 121.603 18.5059 121.763 18.2826C121.922 18.0593 122.233 17.8958 122.696 17.7921C123.167 17.6804 123.88 17.6246 124.837 17.6246C125.396 17.6246 125.854 17.6645 126.213 17.7442C126.572 17.824 126.835 17.9516 127.003 18.1271C127.178 18.3026 127.294 18.49 127.35 18.6894C127.406 18.8888 127.434 19.144 127.434 19.4551C127.434 19.9256 127.21 20.3683 126.764 20.783C126.564 20.9425 126.425 21.0901 126.345 21.2257C126.265 21.3613 126.185 21.5487 126.106 21.788C125.986 22.0671 125.751 22.7251 125.4 23.762C125.057 24.7909 124.666 25.9633 124.227 27.2793C123.789 28.5953 123.45 29.5843 123.21 30.2463C122.947 31.012 122.7 31.662 122.469 32.1964C122.245 32.7307 121.99 33.2412 121.703 33.7277C121.424 34.2222 121.133 34.621 120.83 34.9241C120.535 35.2272 120.188 35.4944 119.789 35.7257C119.398 35.9569 118.963 36.1205 118.485 36.2162C118.014 36.3198 117.476 36.3717 116.87 36.3717Z" fill="black"/>
</svg>
