<svg width="24" height="23" viewBox="0 0 24 23" fill="none" xmlns="http://www.w3.org/2000/svg">
<path d="M18.4904 2.99878C18.9872 2.99878 19.4637 3.19614 19.815 3.54745C20.1663 3.89876 20.3637 4.37523 20.3637 4.87206V17.985C20.3637 18.4818 20.1663 18.9583 19.815 19.3096C19.4637 19.6609 18.9872 19.8583 18.4904 19.8583H5.37743C4.8806 19.8583 4.40413 19.6609 4.05282 19.3096C3.70151 18.9583 3.50415 18.4818 3.50415 17.985V4.87206C3.50415 4.37523 3.70151 3.89876 4.05282 3.54745C4.40413 3.19614 4.8806 2.99878 5.37743 2.99878H18.4904ZM18.0221 17.5167V12.5525C18.0221 11.7427 17.7004 10.966 17.1277 10.3934C16.5551 9.82076 15.7784 9.49905 14.9686 9.49905C14.1725 9.49905 13.2452 9.98611 12.7956 10.7167V9.67702H10.1824V17.5167H12.7956V12.8991C12.7956 12.1778 13.3763 11.5878 14.0975 11.5878C14.4453 11.5878 14.7788 11.7259 15.0248 11.9718C15.2707 12.2177 15.4088 12.5513 15.4088 12.8991V17.5167H18.0221ZM7.13831 8.20649C7.55564 8.20649 7.95588 8.04071 8.25098 7.74561C8.54608 7.45051 8.71186 7.05027 8.71186 6.63294C8.71186 5.76186 8.00938 5.05002 7.13831 5.05002C6.71849 5.05002 6.31587 5.21679 6.01902 5.51365C5.72216 5.8105 5.55539 6.21312 5.55539 6.63294C5.55539 7.50401 6.26724 8.20649 7.13831 8.20649ZM8.44024 17.5167V9.67702H5.84575V17.5167H8.44024Z" fill="white"/>
</svg>
