<svg width="26" height="21" viewBox="0 0 26 21" fill="none" xmlns="http://www.w3.org/2000/svg">
<g clip-path="url(#clip0_1036_6540)">
<path d="M7.91846 3.32947C4.02443 3.32947 0.867676 6.50802 0.867676 10.4286C0.867676 14.3492 4.02467 17.5278 7.91846 17.5278C11.8122 17.5278 14.9692 14.3494 14.9692 10.4286C14.9692 6.50779 11.8126 3.32947 7.91846 3.32947ZM19.1782 3.74533C17.2312 3.74533 15.653 6.73826 15.653 10.4287C15.653 14.1192 17.2314 17.1123 19.1785 17.1123C21.1255 17.1123 22.7039 14.1194 22.7039 10.4287H22.7036C22.7036 6.7372 21.1255 3.74533 19.1783 3.74533H19.1782ZM24.6277 4.44146C23.9431 4.44146 23.388 7.12224 23.388 10.4287C23.388 13.7352 23.9427 16.416 24.6277 16.416C25.3126 16.416 25.8677 13.7345 25.8677 10.4286C25.8677 7.12201 25.3124 4.44146 24.6278 4.44146H24.6277Z" fill="white"/>
</g>
<defs>
<clipPath id="clip0_1036_6540">
<rect width="25" height="20" fill="white" transform="translate(0.867676 0.428589)"/>
</clipPath>
</defs>
</svg>
