<svg width="20" height="23" viewBox="0 0 20 23" fill="none" xmlns="http://www.w3.org/2000/svg">
<g clip-path="url(#clip0_1036_6536)">
<path d="M2.85714 1.42871C1.28125 1.42871 0 2.70996 0 4.28585V18.5716C0 20.1475 1.28125 21.4287 2.85714 21.4287H17.1429C18.7188 21.4287 20 20.1475 20 18.5716V4.28585C20 2.70996 18.7188 1.42871 17.1429 1.42871H2.85714ZM16.1205 5.17871L11.4866 10.4734L16.9375 17.6787H12.6696L9.33036 13.3082L5.50446 17.6787H3.38393L8.33929 12.0135L3.11161 5.17871H7.48661L10.5089 9.17425L14 5.17871H16.1205ZM14.433 16.4109L6.84821 6.3796H5.58482L13.2545 16.4109H14.4286H14.433Z" fill="white"/>
</g>
<defs>
<clipPath id="clip0_1036_6536">
<rect width="20" height="22.8571" fill="white"/>
</clipPath>
</defs>
</svg>
